<?xml version="1.0" encoding="UTF-8"?>
<!DOCTYPE svg PUBLIC "-//W3C//DTD SVG 1.1//EN" "http://www.w3.org/Graphics/SVG/1.1/DTD/svg11.dtd">
<!-- Creator: CorelDRAW -->
<svg xmlns="http://www.w3.org/2000/svg" xml:space="preserve" width="52.9166mm" height="16.1712mm" version="1.1" style="shape-rendering:geometricPrecision; text-rendering:geometricPrecision; image-rendering:optimizeQuality; fill-rule:evenodd; clip-rule:evenodd"
viewBox="0 0 4736.38 1447.43"
 xmlns:xlink="http://www.w3.org/1999/xlink"
 xmlns:xodm="http://www.corel.com/coreldraw/odm/2003">
 <defs>
  <style type="text/css">
   <![CDATA[
    .fil7 {fill:#00658F}
    .fil10 {fill:#006691}
    .fil2 {fill:#0092D0}
    .fil14 {fill:#257022}
    .fil12 {fill:#277524}
    .fil0 {fill:#31892B}
    .fil9 {fill:#821211}
    .fil6 {fill:#841212}
    .fil11 {fill:#891313}
    .fil13 {fill:#9D6100}
    .fil8 {fill:#A19500}
    .fil5 {fill:#A39700}
    .fil3 {fill:#AE141C}
    .fil1 {fill:#C07400}
    .fil4 {fill:#EED900}
   ]]>
  </style>
 </defs>
 <g id="Capa_x0020_1">
  <metadata id="CorelCorpID_0Corel-Layer"/>
  <g id="_2015648038912">
   <path class="fil0" d="M4327.16 590.49c37.9,-8.64 39.19,-31.04 98.52,-44.87 110.97,165.73 200.19,541.82 60.62,750.24 -164.81,0 -186.35,-11.82 -295.67,-68.09 -31.37,-16.16 -81.39,-51.19 -103.85,-78.03 -29.55,-35.32 -61.7,-71.95 -62.76,-131.3 -37.05,14.03 -71.21,41.24 -98.51,48.43 -28.97,-94.04 107.5,-250.52 144.58,-285.9 62.41,-59.57 175.79,-153.67 257.06,-190.49zm409.22 283.8l0 151.98c-0.61,5.82 -1.26,11.64 -2.02,17.49 -5.12,39.41 -15.41,112.15 -31.05,150.97l-19.98 30.93c-32.84,12.4 -84.58,38.27 -99.27,61.71 -28.72,45.85 -38.84,56.77 -66.4,91.84 -208.21,164.61 -668.96,-49.59 -676.04,-318.28 -2.18,-82.88 38.36,-160.58 69.05,-211.89 33.77,-56.48 79.95,-99.48 126.63,-146.18 59.01,-59.03 249.37,-204.52 327.75,-225.45 -25.72,-38.43 -75.45,-68.93 -124.14,-88.06 -93.88,-36.89 -230.98,-15.36 -318.6,54.55 -27.61,22.03 -98.64,68.6 -134.3,71.4 -10.65,-26.19 -22.57,-28.45 -37.61,-53.05 15.47,-27.34 23.41,-16.87 38.39,-45.47l172.19 -100.95c166.64,-93.2 361.09,-126.45 515.59,4.58 13.28,11.26 21.74,20.12 35.44,32.76 14.56,13.44 1.64,-0.92 15.03,15.29 6.63,8.03 8.15,11.81 12.31,18.01 22.5,-11.91 45.69,-18.41 68.2,-30.32 10.54,21.97 24.3,57.55 30.31,83.36 -19.92,4.65 -22.27,6.89 -37.89,15.16 4.28,18.36 114.32,194.61 136.41,419.6z"/>
   <path class="fil1" d="M2925.19 356.17l54.14 158.05c76.82,204.93 155.04,428.18 253.97,625.09 36.38,72.39 114.77,215.6 176.65,262.88 42.86,32.74 105.16,64.46 152.98,7.35 8.59,-13.35 15.96,-21.41 27.24,-39.88 10.82,-17.72 16.03,-38.89 25.01,-50.71 8.69,-11.43 79.71,-48.26 98.13,-54.83 51.79,-96.17 84.54,-573.44 74.68,-748.8 -10.65,-26.19 -22.57,-28.45 -37.61,-53.05 15.47,-27.34 23.41,-16.87 38.39,-45.47 2.04,-123.88 -7.88,-184.64 -7.16,-310.8 0.28,-47.86 -7.68,-67.68 -7.68,-105.99l-2.52 0 -54.13 0c-12.92,1.27 -23.93,5 -42.26,14.74 -13.86,7.37 -68.21,35.52 -68.43,49.48l0.63 140.4c-0.15,64.71 8.03,99.02 7.69,159.03 -0.63,108.6 -0.13,217.35 -0.1,325.96 0.03,108.6 -10.24,206.8 -15.3,310.57 -2.04,41.81 -10.37,97.88 -17.13,142.01 -6.07,39.65 -24.95,99.46 -28.2,138.51 -114.05,-30.45 -453.12,-929.7 -454.69,-1000.32 -47.29,3.94 -141.58,53.87 -174.3,75.79z"/>
   <path class="fil2" d="M569.13 803.29c-125.27,-78.75 -222.74,-426.96 -341.78,-445.95 -94.71,9.4 -103.29,112.71 -107.18,210.81 -3.94,99.62 -3.96,207.84 4.84,305.92 17.11,190.82 40.37,387.01 54.06,573.36 13.27,-0.26 47.43,-4.43 56.8,-7.38 27.38,-8.64 19.41,-13.86 16.48,-38.63 -41.38,-350.35 -56.78,-480.61 -55.24,-863.36 0.07,-22.57 0.9,-56.59 10.76,-80.09 10.97,-26.16 4.4,-10.7 11.9,-18.74 46.88,35.12 120.23,185.67 159.7,250.01 97.71,159.28 87.57,118 185.65,220.15 70.83,29.87 122.36,47.52 197.38,4.67 162.36,-92.73 235.4,-345.41 306.77,-466.94 9.46,-38.32 41.93,-100.4 75.04,-114.15 60.57,65.45 66.47,394.68 68.59,508.21 1.56,83.23 8.44,521 -7.97,566.19 1.56,1.27 4.29,0.62 5.26,2.97 0.98,2.38 4.07,2.27 5.49,2.69 27.32,8.12 33.63,4.08 65.03,4.08l7.58 -151.56c-0.05,-209.67 22.8,-837.96 -82.85,-985.68 -14.46,-20.22 -21.75,-28.39 -53.56,-28.16 -152.86,13.82 -196.72,376.91 -375.08,555.21 -91.67,91.65 -189.14,38.13 -207.68,-3.63z"/>
   <path class="fil3" d="M1686.62 1288.28c-61.71,-18.2 -144.85,-116.72 -171.14,-174.13 -108.43,-236.85 355.52,-495.97 496.05,-523.06 21.92,-19.81 57.58,-27.93 87.63,-36.37 89.29,117.06 80.48,668.05 -136.96,778.53 -71.6,36.37 -233.39,7.8 -275.58,-44.97zm-189.65 -841.17c30.63,-12.71 49.8,-24.01 78.14,-39.05 27.14,-14.39 59.13,-26.47 86.21,-35.03 74.16,-23.45 119.74,-28.18 218.07,-23.5 94.82,13.28 145.01,78 185.52,131.54 -14.63,9.14 -203.69,80.47 -302.6,136.83 -100.23,57.11 -173.9,120.2 -239.72,192.37 -63.18,69.28 -129.66,196.09 -81.59,324.99 56.42,151.3 177.97,199.89 203.8,228.82l27.09 18.02c16.16,8.32 19.48,9 37.79,15.29 207.55,71.24 354.96,25.92 444.75,-182.65 83.88,-194.84 92.68,-391.3 49.02,-599.09 -5.4,-25.69 -18.66,-57.87 -20.93,-85.17l45.21 -8.73c-23.06,-46.96 16.53,-66.49 -43.57,-91.43 -147.66,-61.27 -71.45,-51.64 -173.34,-114.62 -23.32,-14.42 -72.36,-41.97 -101.12,-40.39 -165.69,-25.82 -343.97,29.71 -442.89,108.6l30.15 63.21z"/>
   <path class="fil4" d="M2594 1432.27c17.53,-10.14 46.04,-19.78 65.96,-30.32 -21.03,-43.81 -106.1,-309.13 -106.1,-363.75l-7.57 -7.57c-17.29,-53.39 -57.94,-257.9 -55.74,-318.29 -23.68,-57.91 -24.67,-309.15 -8.15,-389.75 13.02,-63.5 36.72,-99.71 77.01,-135.17 17.58,-15.48 44.45,-29.56 68.82,-37.28 30.24,-9.58 61.72,-2.93 99.93,-9.54 325.16,58.46 0.57,355.19 -84.9,539.49 -91.94,198.27 -59.9,342.41 103.65,475.92 42.69,34.84 96.94,60.78 141.27,94.38l97.83 45.27c22.87,10.1 80.29,35.95 105.9,38.09 5.05,-21.71 14.08,-50.18 22.73,-68.2 -131.99,-69.83 -580.29,-191.11 -422.04,-528.13 12.1,-25.79 23.06,-39.88 35.55,-62.96 12.59,-23.3 25.03,-43.05 39.31,-66.78l145.15 -233.76c9.09,-15.22 3.87,-7.74 12.57,-17.75 3.37,-40.55 16.2,-41.94 15.85,-98.65 -0.27,-42.69 -8.06,-61.19 -26.48,-87.76 -29.14,-42.06 -84.6,-82.24 -140.94,-93.44 -355.49,-47.66 -398.72,253.3 -362.26,574.43 15.49,136.44 42.42,283.95 72.12,412.29 33.22,143.61 98.05,312.15 110.51,369.22z"/>
   <path class="fil5" d="M2594 1432.27c-12.46,-57.07 -77.29,-225.61 -110.51,-369.22 -29.7,-128.34 -56.62,-275.85 -72.12,-412.29 -36.46,-321.13 6.77,-622.1 362.26,-574.43 -16.45,-15.14 -69.39,-35.29 -93.57,-43.38 -110.14,-36.82 -242.94,-14.2 -317.01,79.38 -95.81,121.06 -87.89,285.65 -68.13,472.48l32.65 247.73c28.29,170.32 64.59,300.13 117.33,458.62 6.8,20.43 11.28,35.1 16.85,51.36 3.09,9 6.1,19.09 10.74,27.15 13.14,22.85 -0.7,7.72 18.51,19.39l103 43.23z"/>
   <path class="fil6" d="M1644.8 1364.07c-25.82,-28.93 -147.38,-77.52 -203.8,-228.82 -48.06,-128.9 18.41,-255.71 81.59,-324.99 65.81,-72.17 139.49,-135.25 239.72,-192.37 98.91,-56.36 287.98,-127.69 302.6,-136.83 -40.51,-53.53 -90.7,-118.26 -185.52,-131.54 20.43,28.08 57.06,47.14 60.62,90.01 -100.58,8.37 -376.53,159.43 -460.44,244.33 -41.69,42.18 -83.82,78.29 -115.14,127.36 -115.4,180.79 -49.72,356.92 117.68,472.69 31.47,21.77 122.53,76.87 162.68,80.15z"/>
   <path class="fil7" d="M179.08 1447.43c-13.69,-186.35 -36.95,-382.54 -54.06,-573.36 -8.8,-98.07 -8.78,-206.29 -4.84,-305.92 3.88,-98.11 12.47,-201.42 107.18,-210.81 -1.34,-1.32 -3.62,-4.99 -4.33,-3.6l-51.28 -25.33c-60.54,-26.74 -122.79,-55.52 -155.34,66.9 -9.44,35.53 -14.18,76.59 -16.4,120.2l0 230.23 60.62 656.23c45.74,10.65 76.27,33.53 118.45,45.47z"/>
   <path class="fil7" d="M1069.27 447.11c0.94,1.65 1.79,2.51 2,5.34l20.02 206.8c7.69,142.29 -0.04,544.57 -0.04,704.81 22.73,12.02 86.31,44.31 113.67,43.29 16.41,-45.19 9.52,-482.96 7.97,-566.19 -2.12,-113.53 -8.02,-442.76 -68.59,-508.21 -33.11,13.75 -65.58,75.83 -75.04,114.15z"/>
   <path class="fil8" d="M2490.54 712.35c-2.19,60.38 38.45,264.89 55.74,318.29l7.57 7.57 70.08 66.33c20.86,19.59 54.6,40.69 79.92,56.49 31.18,19.45 150.93,82.01 184.32,89.37 -44.33,-33.6 -98.57,-59.54 -141.27,-94.38 -163.55,-133.51 -195.59,-277.65 -103.65,-475.92 85.47,-184.3 410.06,-481.03 84.9,-539.49 13.37,31.96 27.39,35.19 22.99,86.26 -8.34,96.75 -139.25,243.74 -192.1,339.1 -50.41,90.95 -30.12,51.15 -68.51,146.38z"/>
   <path class="fil9" d="M2011.53 591.09c42.47,118.78 17.39,356.29 -20.17,475.73 -26.81,85.23 -80.9,200.66 -175.76,225.88 -37,9.83 -101.97,5.94 -128.99,-4.41 42.19,52.76 203.99,81.33 275.58,44.97 217.45,-110.48 226.25,-661.47 136.96,-778.53 -30.05,8.44 -65.71,16.56 -87.63,36.37z"/>
   <path class="fil10" d="M569.13 803.29c18.55,41.76 116.01,95.28 207.68,3.63 178.36,-178.3 222.22,-541.39 375.08,-555.21l-49.75 -27.7c-21.39,-8.73 -31.22,-17.04 -53.55,-23.01 -50.02,-13.38 -81.35,22.13 -101.54,48.86 -69.78,92.45 -137.49,290.25 -213.36,408.05 -33.92,52.67 -90.18,138.91 -164.57,145.38z"/>
   <path class="fil11" d="M1496.97 447.11l-30.15 -63.21c98.91,-78.89 277.19,-134.42 442.89,-108.6 -18.3,-20.26 -33.25,-22.24 -60.52,-32.92 -22.71,-8.9 -42.91,-16.92 -69.11,-21.83 -211.43,-39.66 -398.84,96.01 -438.74,105.3 18.59,35.14 24.9,64.66 56,80.41 14.48,7.33 32.6,13.63 48.01,20.26 16.5,7.08 37.08,16.24 51.61,20.59z"/>
   <path class="fil7" d="M197.11 538.05l146.95 224.3c51.52,69.13 141.55,123.72 221.05,147.02 -98.08,-102.15 -87.94,-60.87 -185.65,-220.15 -39.47,-64.34 -112.81,-214.89 -159.7,-250.01 -7.49,8.05 -0.92,-7.42 -11.9,18.74 -9.85,23.5 -10.69,57.52 -10.76,80.09z"/>
   <path class="fil12" d="M4024.02 1018.45c0,-239.49 278,-388.49 303.13,-427.96 -81.27,36.81 -194.65,130.92 -257.06,190.49 -37.08,35.38 -173.55,191.86 -144.58,285.9 27.3,-7.19 61.46,-34.41 98.51,-48.43z"/>
   <path class="fil13" d="M3562.94 1409.54c65.21,-16.42 135.83,-77.28 150.38,-145.42 -18.43,6.57 -89.44,43.4 -98.13,54.83 -8.98,11.82 -14.19,32.99 -25.01,50.71 -11.28,18.47 -18.64,26.53 -27.24,39.88z"/>
   <path class="fil14" d="M4517.65 1379.22c28.96,-7.22 79.5,-39.02 99.59,-58.5 26.88,-26.06 57.65,-54.3 66.08,-95.06 -32.84,12.4 -84.58,38.27 -99.27,61.71 -28.72,45.85 -38.84,56.77 -66.4,91.84z"/>
  </g>
 </g>
</svg>
