<?xml version="1.0" encoding="UTF-8"?>
<!DOCTYPE svg PUBLIC "-//W3C//DTD SVG 1.1//EN" "http://www.w3.org/Graphics/SVG/1.1/DTD/svg11.dtd">
<!-- Creator: CorelDRAW -->
<svg xmlns="http://www.w3.org/2000/svg" xml:space="preserve" width="55.7953mm" height="55.7953mm" version="1.1" style="shape-rendering:geometricPrecision; text-rendering:geometricPrecision; image-rendering:optimizeQuality; fill-rule:evenodd; clip-rule:evenodd"
viewBox="0 0 353.61 353.61"
 xmlns:xlink="http://www.w3.org/1999/xlink"
 xmlns:xodm="http://www.corel.com/coreldraw/odm/2003">
 <defs>
  <style type="text/css">
   <![CDATA[
    .fil0 {fill:#FEFEFE}
    .fil8 {fill:#00658F}
    .fil3 {fill:#0092D0}
    .fil9 {fill:#277524}
    .fil1 {fill:#31892B}
    .fil7 {fill:#841212}
    .fil10 {fill:#9D6100}
    .fil6 {fill:#A39700}
    .fil4 {fill:#AE141C}
    .fil2 {fill:#C07400}
    .fil5 {fill:#EED900}
   ]]>
  </style>
 </defs>
 <g id="Capa_x0020_1">
  <metadata id="CorelCorpID_0Corel-Layer"/>
  <g id="_2141728927584">
   <path class="fil0" d="M70.72 0l212.17 0c38.9,0 70.72,31.82 70.72,70.72l0 212.17c0,38.9 -31.82,70.72 -70.72,70.72l-212.17 0c-38.9,0 -70.72,-31.82 -70.72,-70.72l0 -212.17c0,-38.9 31.82,-70.72 70.72,-70.72z"/>
   <g>
    <path class="fil1" d="M313.88 153.26c2.68,-0.61 2.78,-2.2 6.98,-3.18 7.86,11.73 14.17,38.36 4.29,53.12 -11.67,0 -13.19,-0.84 -20.94,-4.82 -2.22,-1.14 -5.76,-3.62 -7.35,-5.53 -2.09,-2.5 -4.37,-5.09 -4.44,-9.3 -2.62,0.99 -5.04,2.92 -6.98,3.43 -2.05,-6.66 7.61,-17.74 10.24,-20.24 4.42,-4.22 12.45,-10.88 18.2,-13.49zm28.98 25.43l0 3.08c-0.1,5.14 -0.75,10.37 -2.34,14.29 -0.2,0.49 -0.43,0.94 -0.72,1.34 -0.71,1 -0.04,0.23 -0.69,0.67 -2.33,0.89 -6.2,2.81 -7.17,4.42 -0.97,1.61 -0.92,1.96 -2.26,3.63 -0.92,1.15 -1.66,1.88 -2.42,2.99 -5.97,5.48 -16.87,4.73 -23.72,2.3 -10.88,-3.86 -23.7,-12.03 -24.03,-24.83 -0.15,-5.87 2.72,-11.37 4.89,-15 2.39,-4 5.66,-7.04 8.97,-10.35 4.18,-4.18 17.66,-14.48 23.21,-15.96 -1.82,-2.72 -5.34,-4.88 -8.79,-6.23 -6.65,-2.61 -16.35,-1.09 -22.56,3.86 -1.96,1.56 -6.98,4.86 -9.51,5.06 -0.75,-1.85 -1.6,-2.01 -2.66,-3.76 1.1,-1.94 1.66,-1.19 2.72,-3.22l12.19 -7.15c11.8,-6.6 25.57,-8.95 36.51,0.32 0.94,0.8 1.54,1.42 2.51,2.32 1.03,0.95 0.12,-0.07 1.06,1.08 0.47,0.57 0.58,0.84 0.87,1.28 1.59,-0.84 3.24,-1.3 4.83,-2.15 0.75,1.56 1.72,4.08 2.15,5.9 -1.41,0.33 -1.58,0.49 -2.68,1.07 0.66,2.85 6.61,9.61 8.9,25.44 0.39,2.69 0.69,6.06 0.76,9.61z"/>
    <path class="fil2" d="M214.61 136.67l3.83 11.19c5.44,14.51 10.98,30.32 17.98,44.26 2.58,5.13 8.13,15.27 12.51,18.61 3.03,2.32 7.45,4.56 10.83,0.52 0.61,-0.94 1.13,-1.52 1.93,-2.82 0.77,-1.25 1.14,-2.75 1.77,-3.59 0.62,-0.81 5.64,-3.42 6.95,-3.88 3.67,-6.81 5.99,-40.6 5.29,-53.02 -0.75,-1.85 -1.6,-2.01 -2.66,-3.76 1.1,-1.94 1.66,-1.19 2.72,-3.22 0.14,-8.77 -0.56,-13.07 -0.51,-22.01 0.02,-3.39 -0.54,-4.79 -0.54,-7.51l-0.18 0 -3.83 0c-0.92,0.09 -1.69,0.35 -2.99,1.04 -0.98,0.52 -4.83,2.51 -4.85,3.5l0.04 9.94c-0.01,4.58 0.57,7.01 0.54,11.26 -0.04,7.69 -0.01,15.39 -0.01,23.08 0,7.69 -0.73,14.64 -1.08,21.99 -0.14,2.96 -0.73,6.93 -1.21,10.06 -0.43,2.81 -1.77,7.04 -2,9.81 -8.08,-2.16 -32.08,-65.83 -32.2,-70.83 -3.35,0.28 -10.02,3.81 -12.34,5.37z"/>
    <path class="fil3" d="M47.8 168.33c-3.82,-2.37 -9.19,-11.75 -11.71,-16.26 -1.71,-3.06 -3.27,-5.85 -5.2,-8.75 -0.96,-1.44 -1.87,-2.8 -2.91,-4.06 -1.16,-1.41 -2.42,-2.18 -4.39,-2.5 -6.71,0.67 -7.31,7.98 -7.59,14.93 -0.28,7.05 -0.28,14.72 0.34,21.66 1.21,13.51 2.86,27.4 3.83,40.6 0.94,-0.02 3.36,-0.31 4.02,-0.52 1.94,-0.61 1.37,-0.98 1.17,-2.74 -2.93,-24.81 -4.02,-34.03 -3.91,-61.13 0.01,-1.6 0.06,-4.01 0.76,-5.67 0.78,-1.85 0.31,-0.76 0.84,-1.33 3.32,2.49 8.51,13.15 11.31,17.7 6.92,11.28 6.2,8.35 13.15,15.59 5.01,2.11 8.66,3.36 13.98,0.33 11.5,-6.57 16.67,-24.46 21.72,-33.06 0.67,-2.71 2.97,-7.11 5.31,-8.08 4.29,4.63 4.71,27.95 4.86,35.98 0.11,5.89 0.6,36.89 -0.56,40.09 0.11,0.09 0.3,0.04 0.37,0.21 0.07,0.17 0.29,0.16 0.39,0.19 1.93,0.57 2.38,0.29 4.6,0.29l0.54 -10.73c-0,-15.99 1.01,-52.52 -3.81,-65.94 -1.01,-2.82 -2.41,-5.84 -5.84,-5.86 -5.91,0.53 -8.03,6.41 -10.6,11.31 -4.36,8.31 -12.58,32.02 -23.73,31.58 -3.06,-0.12 -6.04,-1.89 -6.92,-3.81z"/>
    <path class="fil4" d="M126.87 202.67c-4.36,-1.35 -10.21,-8.24 -12.08,-12.33 -7.67,-16.76 25.12,-35.09 35.11,-37.04 1.54,-1.44 4.07,-2 6.22,-2.6 6.5,8.31 5.61,47.39 -9.68,55.17 -5.1,2.59 -16.5,0.56 -19.57,-3.21zm-13.42 -59.56c2.22,-0.89 3.54,-1.69 5.57,-2.77 1.92,-1.02 4.19,-1.87 6.1,-2.48 5.25,-1.66 8.48,-2 15.44,-1.66 6.71,0.94 10.27,5.52 13.14,9.31 -1.04,0.65 -14.42,5.7 -21.43,9.69 -7.1,4.04 -12.31,8.51 -16.97,13.62 -4.47,4.91 -9.18,13.88 -5.78,23.01 3.99,10.71 12.6,14.15 14.43,16.2l1.92 1.28c1.14,0.59 1.38,0.64 2.68,1.08 14.7,5.04 25.13,1.84 31.49,-12.93 5.94,-13.8 6.56,-27.71 3.47,-42.42 -0.38,-1.82 -1.32,-4.1 -1.48,-6.03l3.2 -0.62c-1.63,-3.32 1.17,-4.71 -3.09,-6.47 -10.46,-4.34 -5.06,-3.66 -12.27,-8.12 -1.61,-1 -5.14,-2.92 -7.16,-2.94 -12.59,-1.73 -23.27,2.3 -31.57,7.57l2.31 4.68z"/>
    <path class="fil5" d="M191.16 212.87c1.24,-0.72 3.26,-1.4 4.67,-2.15 -1.49,-3.1 -7.51,-21.89 -7.51,-25.76l-0.55 -0.54c-1.22,-3.79 -4.11,-18.28 -3.95,-22.54 -0.42,-1.08 -1.41,-11.42 -1.42,-13.4 -0.01,-5.16 -0.04,-9.8 0.86,-14.2 2.83,-13.81 13.55,-12.18 17.4,-12.91 11.92,2.2 12.15,9.7 6.49,18.56 -10.31,16.17 -27.76,34.84 -5.15,53.34 3.01,2.47 6.88,4.31 10.01,6.7 1.93,1.48 12.96,5.78 14.41,5.9 0.36,-1.54 1,-3.55 1.61,-4.83 -9.35,-4.94 -41.09,-13.53 -29.88,-37.4 0.86,-1.83 1.63,-2.82 2.52,-4.46 0.89,-1.65 1.77,-3.05 2.78,-4.73l10.28 -16.55c0.64,-1.08 0.27,-0.55 0.89,-1.26 0.24,-2.87 1.15,-2.97 1.12,-6.98 -0.02,-3.02 -0.57,-4.33 -1.87,-6.21 -2.06,-2.98 -5.99,-5.82 -9.98,-6.62 -25.17,-3.37 -28.23,17.94 -25.65,40.67 1.1,9.66 3,20.11 5.11,29.19 2.35,10.17 6.94,22.1 7.83,26.14z"/>
    <path class="fil6" d="M191.16 212.87c-0.88,-4.04 -5.47,-15.97 -7.83,-26.14 -2.1,-9.09 -4.01,-19.53 -5.11,-29.19 -2.58,-22.74 0.48,-44.05 25.65,-40.67 -1.16,-1.07 -4.91,-2.5 -6.63,-3.07 -7.8,-2.61 -17.2,-1.01 -22.45,5.62 -6.78,8.57 -6.22,20.23 -4.82,33.45l2.31 17.54c2,12.06 4.57,21.25 8.31,32.47 0.48,1.45 0.8,2.49 1.19,3.64 0.22,0.64 0.43,1.35 0.76,1.92 0.93,1.62 -0.05,0.55 1.31,1.37l7.29 3.06z"/>
    <path class="fil7" d="M123.95 208.04c-1.83,-2.05 -10.44,-5.49 -14.43,-16.2 -3.4,-9.13 1.3,-18.11 5.78,-23.01 4.66,-5.11 9.88,-9.58 16.97,-13.62 7,-3.99 20.39,-9.04 21.43,-9.69 -2.87,-3.79 -6.42,-8.37 -13.14,-9.31 1.45,1.99 4.04,3.34 4.29,6.37 -7.12,0.59 -26.66,11.29 -32.6,17.3 -2.95,2.99 -5.94,5.54 -8.15,9.02 -8.17,12.8 -3.52,25.27 8.33,33.47 2.23,1.54 8.68,5.44 11.52,5.68z"/>
    <path class="fil8" d="M20.17 213.94c-0.97,-13.19 -2.62,-27.09 -3.83,-40.6 -0.62,-6.94 -0.62,-14.61 -0.34,-21.66 0.28,-6.95 0.88,-14.26 7.59,-14.93 -0.1,-0.09 -0.26,-0.35 -0.31,-0.25l-3.63 -1.79c-4.29,-1.89 -8.69,-3.93 -11,4.74 -0.67,2.52 -1,5.42 -1.16,8.51l0 16.3 4.29 46.46c3.24,0.75 5.4,2.37 8.39,3.22z"/>
    <path class="fil8" d="M83.2 143.11c0.07,0.12 0.13,0.18 0.14,0.38l1.42 14.64c0.54,10.07 -0,38.56 -0,49.9 1.61,0.85 6.11,3.14 8.05,3.07 1.16,-3.2 0.67,-34.2 0.56,-40.09 -0.15,-8.04 -0.57,-31.35 -4.86,-35.98 -2.34,0.97 -4.64,5.37 -5.31,8.08z"/>
    <path class="fil6" d="M183.81 161.89c-0.16,4.26 2.73,18.75 3.95,22.54l0.55 0.54 4.96 4.7c1.48,1.39 3.87,2.88 5.66,4 2.21,1.38 10.7,5.81 13.07,6.33 -3.13,-2.39 -6.99,-4.23 -10.01,-6.7 -22.61,-18.5 -5.16,-37.17 5.15,-53.34 5.65,-8.86 5.43,-16.36 -6.49,-18.56 1.26,3.08 3.23,5.17 -0.17,11.9 -0.77,1.52 -1.87,3.22 -2.83,4.68 -3.12,4.76 -9.65,13.82 -11.65,18.39 -0.87,2 -1.32,3.47 -2.19,5.53z"/>
    <path class="fil7" d="M149.9 153.31c3.08,8.19 1.19,25.4 -1.41,33.68 -1.9,6.03 -5.73,14.21 -12.45,15.99 -2.65,0.7 -7.23,0.41 -9.17,-0.31 3.07,3.77 14.46,5.8 19.57,3.21 15.3,-7.78 16.19,-46.86 9.68,-55.17 -2.15,0.6 -4.68,1.16 -6.22,2.6z"/>
    <path class="fil8" d="M47.8 168.33c0.88,1.92 3.86,3.69 6.92,3.81 11.15,0.45 19.37,-23.26 23.73,-31.58 2.57,-4.9 4.69,-10.78 10.6,-11.31l-0.6 -0.53c-0.83,-0.58 -0.21,-0.23 -1.01,-0.65 -11.86,-6.17 -12.77,-0.11 -20.58,15.38 -3.7,7.34 -10.1,24.08 -19.07,24.87z"/>
    <path class="fil7" d="M113.45 143.11l-2.31 -4.68c8.3,-5.27 18.98,-9.3 31.57,-7.57 -4.01,-3.98 -15.04,-4.72 -21.32,-3.7 -3.38,0.55 -6.59,2.01 -9.74,3.14 -4.53,1.62 -7.4,3.82 -9.18,4.23 2.43,4.59 1.93,5.76 10.98,8.59z"/>
    <path class="fil8" d="M21.45 149.55l10.41 15.88c3.65,4.9 10.02,8.76 15.65,10.41 -6.94,-7.23 -6.23,-4.31 -13.15,-15.59 -2.79,-4.56 -7.99,-15.22 -11.31,-17.7 -0.53,0.57 -0.07,-0.53 -0.84,1.33 -0.7,1.66 -0.76,4.07 -0.76,5.67z"/>
    <path class="fil9" d="M292.41 183.57c0,-16.96 19.68,-27.51 21.46,-30.3 -5.75,2.61 -13.78,9.27 -18.2,13.49 -2.63,2.51 -12.29,13.58 -10.24,20.24 1.93,-0.51 4.35,-2.44 6.98,-3.43z"/>
    <path class="fil9" d="M327.25 209.11c2.15,-0.48 5.71,-2.73 7.16,-4.14 1.98,-1.92 4.12,-3.82 4.68,-6.9 -2.33,0.89 -6.2,2.81 -7.17,4.42 -0.97,1.61 -0.92,1.96 -2.26,3.63 -0.92,1.15 -1.66,1.88 -2.42,2.99z"/>
    <path class="fil10" d="M259.77 211.26c4.62,-1.16 9.62,-5.47 10.65,-10.3 -1.3,0.47 -6.33,3.07 -6.95,3.88 -0.64,0.84 -1,2.34 -1.77,3.59 -0.8,1.31 -1.32,1.88 -1.93,2.82z"/>
   </g>
  </g>
 </g>
</svg>
